#!OML:ASF F:\VICON\USERDATA\INSTALL\rory3\rory3.ASF
:FULLY-SPECIFIED
:DEGREES
394
root -0.591701 17.8485 5.31681 -1.70831 36.8538 361.563
lowerback 19.8506 -0.852428 -2.52014
upperback 0.543934 -1.24218 3.76109
thorax -10.4294 -0.328014 5.96169
lowerneck -9.69623 -4.89197 -4.51185
upperneck 19.109 -5.61171 -1.21153
head 7.57969 -3.07266 -0.173867
rclavicle -3.49861e-014 1.74931e-014
rhumerus -40.6279 9.44035 -78.7698
rradius 96.0704
rwrist 35.2482
rhand -24.8182 11.4984
rfingers 7.12502
rthumb 1.68717 -18.4747
lclavicle -3.49861e-014 1.74931e-014
lhumerus -50.6908 7.31803 80.2039
lradius 43.6309
lwrist 5.62424
lhand -11.557 52.2145
lfingers 7.12502
lthumb 14.4839 81.689
rfemur -17.4695 -11.2506 21.231
rtibia 44.6925
rfoot -22.6054 -20.2961
rtoes 21.1434
lfemur -8.77477 5.2612 -25.5142
ltibia 34.6368
lfoot -21.2943 21.7317
ltoes 2.76338
395
root -0.600809 17.839 5.31398 -2.24294 35.9172 360.692
lowerback 20.0006 -0.8453 -1.78597
upperback 0.489251 -1.04281 3.93597
thorax -10.6091 -0.258436 5.6854
lowerneck -9.27277 -4.99783 -4.15326
upperneck 18.6004 -5.78178 -1.56516
head 7.31683 -3.1581 -0.34205
rclavicle 8.7664e-014 -2.22639e-014
rhumerus -40.0291 9.0453 -79.2024
rradius 92.0073
rwrist 35.0938
rhand -26.3358 11.0378
rfingers 7.12502
rthumb 0.221409 -18.9418
lclavicle 8.7664e-014 -2.22639e-014
lhumerus -50.3614 7.59305 79.7639
lradius 43.8945
lwrist 5.97769
lhand -11.5528 52.7253
lfingers 7.12502
lthumb 14.4879 82.1995
rfemur -17.2917 -10.9397 22.0179
rtibia 44.2549
rfoot -22.3851 -19.5684
rtoes 20.9229
lfemur -9.07607 5.21871 -24.7556
ltibia 35.2099
lfoot -21.8382 22.1878
ltoes 4.74842
396
root -0.604046 17.8382 5.32004 -2.48701 35.3086 360.299
lowerback 19.9823 -0.867845 -1.42342
upperback 0.512607 -0.969868 4.09977
thorax -10.5844 -0.237893 5.63664
lowerneck -8.8867 -5.2041 -3.94485
upperneck 17.9778 -6.04824 -2.00224
head 7.02817 -3.30574 -0.517694
rclavicle 7.55382e-015 -3.49861e-014
rhumerus -39.2374 8.67772 -79.5254
rradius 87.5865
rwrist 34.0837
rhand -28.1965 10.7041
rfingers 7.12502
rthumb -1.57565 -19.2698
lclavicle 7.55382e-015 -3.49861e-014
lhumerus -50.0708 7.69393 79.6178
lradius 44.4812
lwrist 6.84538
lhand -12.0552 53.5753
lfingers 7.12502
lthumb 14.0038 83.0836
rfemur -17.0303 -10.8967 22.3419
rtibia 43.8882
rfoot -22.2103 -18.8102
rtoes 20.0196
lfemur -9.26131 4.91083 -24.3757
ltibia 35.7403
lfoot -22.4812 22.1353
ltoes 6.75791
397
root -0.606614 17.8437 5.33071 -2.57719 34.8519 360.158
lowerback 19.9465 -0.916258 -1.24716
upperback 0.50442 -0.983548 4.18629
thorax -10.5739 -0.250749 5.63432
lowerneck -8.63939 -5.34563 -3.91721
upperneck 17.5522 -6.24719 -2.11836
head 6.84416 -3.40648 -0.561039
rclavicle 7.05686e-014 -1.43125e-014
rhumerus -38.3514 8.08165 -79.7396
rradius 83.1827
rwrist 33.0817
rhand -28.439 11.309
rfingers 7.12502
rthumb -1.80985 -18.663
lclavicle 7.05686e-014 -1.43125e-014
lhumerus -49.8745 7.61952 79.5456
lradius 45.2268
lwrist 7.90945
lhand -12.6509 53.5295
lfingers 7.12502
lthumb 13.4297 83.0766
rfemur -16.72 -10.9834 22.4305
rtibia 43.4635
rfoot -21.9059 -18.4016
rtoes 16.6962
lfemur -9.52418 4.83927 -24.1531
ltibia 36.4093
lfoot -22.4228 22.0849
ltoes 6.83792
398
root -0.625898 17.8451 5.36143 -2.71944 33.9154 360.022
lowerback 19.8407 -0.781523 -1.50261
upperback 0.57484 -0.851283 4.32767
thorax -10.4443 -0.175548 5.89651
lowerneck -8.64678 -5.24724 -3.68243
upperneck 17.2936 -6.11881 -2.3313
head 6.74548 -3.34653 -0.650287
rclavicle 2.62396e-014 -3.18055e-014
rhumerus -37.1591 7.2444 -79.789
rradius 78.728
rwrist 33.6696
rhand -27.8985 12.1512
rfingers 7.12502
rthumb -1.28793 -17.8247
lclavicle 2.62396e-014 -3.18055e-014
lhumerus -49.5054 7.90143 79.2171
lradius 45.6012
lwrist 8.84652
lhand -13.3239 53.1406
lfingers 7.12502
lthumb 12.781 82.7293
rfemur -16.3931 -10.2714 22.6643
rtibia 43.068
rfoot -21.6758 -18.1323
rtoes 15.5761
lfemur -9.64991 5.29925 -23.8076
ltibia 36.9635
lfoot -21.2167 22.4536
ltoes 2.77925
399
root -0.639325 17.8407 5.38231 -2.87976 33.1704 359.815
lowerback 19.8831 -0.775722 -1.49542
upperback 0.500479 -0.82959 4.42755
thorax -10.5531 -0.1584 6.00427
lowerneck -8.55743 -5.16251 -3.51777
upperneck 17.2711 -6.01491 -2.44599
head 6.71227 -3.29587 -0.701002
rclavicle 1.29409e-013 -1.59028e-015
rhumerus -36.1604 6.14961 -79.8625
rradius 74.251
rwrist 34.7384
rhand -27.4129 12.713
rfingers 7.12502
rthumb -0.818849 -17.2652
lclavicle 1.29409e-013 -1.59028e-015
lhumerus -49.4291 8.01542 78.8924
lradius 46.1781
lwrist 9.98655
lhand -13.8749 53.5011
lfingers 7.12502
lthumb 12.2497 83.1224
rfemur -16.1089 -9.73328 22.9281
rtibia 42.6776
rfoot -21.4893 -17.6724
rtoes 15.9973
lfemur -9.83874 5.45349 -23.4417
ltibia 37.5208
lfoot -19.9722 22.7264
ltoes -1.3434
400
root -0.646222 17.8341 5.39292 -2.77335 32.5389 360.001
lowerback 19.9862 -0.749751 -1.62059
upperback 0.281636 -0.832112 4.33429
thorax -10.8565 -0.144974 5.98772
lowerneck -8.42749 -5.1877 -3.69521
upperneck 17.6178 -6.08235 -2.10899
head 6.81846 -3.31434 -0.57418
rclavicle 2.48481e-014 3.49861e-014
rhumerus -35.1312 5.17998 -80.0762
rradius 69.4781
rwrist 34.5765
rhand -27.0579 12.5699
rfingers 7.12502
rthumb -0.476039 -17.4093
lclavicle 2.48481e-014 3.49861e-014
lhumerus -49.6451 7.64021 78.6614
lradius 47.1205
lwrist 11.163
lhand -14.3219 53.9755
lfingers 7.12502
lthumb 11.8187 83.622
rfemur -15.8788 -9.52683 22.8152
rtibia 42.2765
rfoot -22.0025 -17.1624
rtoes 17.4044
lfemur -10.0808 5.41457 -23.467
ltibia 38.1782
lfoot -19.8107 22.6503
ltoes -2.93643
401
root -0.649316 17.831 5.39777 -2.8522 31.7593 359.992
lowerback 20.0133 -0.692156 -1.59691
upperback 0.242647 -0.74738 4.35984
thorax -10.9257 -0.103106 5.98171
lowerneck -9.11572 -4.97556 -5.00027
upperneck 18.1968 -5.8017 -0.694188
head 7.2133 -3.15073 0.0828616
rclavicle -7.45443e-014 1.59028e-014
rhumerus -33.7658 3.98181 -79.927
rradius 65.103
rwrist 34.9798
rhand -25.5954 12.0975
rfingers 7.12502
rthumb 0.936521 -17.8802
lclavicle -7.45443e-014 1.59028e-014
lhumerus -49.5494 7.7268 78.3648
lradius 47.6265
lwrist 11.8395
lhand -14.6411 53.7333
lfingers 7.12502
lthumb 11.5109 83.3972
rfemur -15.5661 -9.02913 22.9007
rtibia 41.8153
rfoot -22.3432 -17.0047
rtoes 18.0173
lfemur -10.2202 5.1719 -23.2996
ltibia 38.9526
lfoot -20.3846 22.1979
ltoes -1.53096
402
root -0.661126 17.8294 5.40713 -3.24899 30.8575 359.514
lowerback 20.0931 -0.578604 -1.3833
upperback 0.253754 -0.517567 4.60131
thorax -10.9855 0.00434511 6.06754
lowerneck -8.19533 -5.25037 -4.35658
upperneck 17.5112 -6.15598 -1.69559
head 6.78208 -3.35791 -0.33474
rclavicle 7.55382e-015 -2.54444e-014
rhumerus -32.5441 2.07864 -79.3017
rradius 61.6429
rwrist 37.5749
rhand -21.8659 11.0009
rfingers 7.12502
rthumb 4.53823 -18.9305
lclavicle 7.55382e-015 -2.54444e-014
lhumerus -49.214 8.08969 78.0949
lradius 47.6713
lwrist 12.0555
lhand -14.4464 53.2519
lfingers 7.12502
lthumb 11.6986 82.9052
rfemur -15.1629 -8.26789 23.5167
rtibia 41.3258
rfoot -21.6473 -17.2411
rtoes 16.2675
lfemur -10.304 4.95529 -22.5663
ltibia 39.9124
lfoot -21.9855 20.8397
ltoes 5.36201
403
root -0.681618 17.8272 5.42561 -3.76663 29.9126 358.849
lowerback 20.3419 -0.458796 -1.07553
upperback 0.201013 -0.249783 4.85931
thorax -11.2181 0.130996 6.116
lowerneck -8.77204 -5.05858 -5.31884
upperneck 18.1321 -5.86812 -0.788766
head 7.14228 -3.2125 0.107527
rclavicle -4.4329e-014 3.18055e-015
rhumerus -31.574 0.564451 -79.1367
rradius 55.0048
rwrist 39.9248
rhand -28.1707 10.7084
rfingers 7.12502
rthumb -1.55076 -19.2657
lclavicle -4.4329e-014 3.18055e-015
lhumerus -49.0775 8.21586 77.9445
lradius 48.0037
lwrist 12.4991
lhand -14.7772 52.6282
lfingers 7.12502
lthumb 11.3796 82.2994
rfemur -14.7465 -7.37871 24.3745
rtibia 40.865
rfoot -20.9068 -17.5874
rtoes 14.4451
lfemur -10.7866 5.33306 -21.6889
ltibia 40.9987
lfoot -20.7836 21.5875
ltoes 0.558462
404
root -0.695925 17.8254 5.43356 -4.03796 29.0832 358.465
lowerback 20.4651 -0.392586 -0.898655
upperback 0.251638 -0.0929318 5.07217
thorax -11.2495 0.203548 6.2115
lowerneck -8.86965 -4.96236 -5.29778
upperneck 17.9789 -5.71159 -0.927041
head 7.10148 -3.14727 0.0736084
rclavicle 7.95139e-016 -2.22639e-014
rhumerus -29.9735 -0.839409 -78.9688
rradius 52.8248
rwrist 32.9657
rhand -21.6391 10.1223
rfingers 7.12502
rthumb 4.75727 -19.8043
lclavicle 7.95139e-016 -2.22639e-014
lhumerus -48.7123 8.25212 77.9814
lradius 48.5014
lwrist 13.3561
lhand -15.447 52.0797
lfingers 7.12502
lthumb 10.7336 81.7855
rfemur -14.4789 -6.98767 24.903
rtibia 40.4336
rfoot -19.7134 -17.8551
rtoes 10.4792
lfemur -11.2726 5.35039 -21.0621
ltibia 42.2691
lfoot -21.0467 21.0066
ltoes 2.36591
